<svg width="95" height="95" viewBox="0 0 95 95" fill="none" xmlns="http://www.w3.org/2000/svg">
<g clip-path="url(#clip0)">
<path d="M42.5521 32.4583C42.5521 43.9171 51.8746 53.2396 63.3333 53.2396C74.7921 53.2396 84.1146 43.9171 84.1146 32.4583C84.1146 20.9996 74.7921 11.6771 63.3333 11.6771C51.8746 11.6771 42.5521 20.9996 42.5521 32.4583ZM80.9479 32.4583C80.9479 42.1711 73.0461 50.0729 63.3333 50.0729C53.6206 50.0729 45.7188 42.1711 45.7188 32.4583C45.7188 22.7456 53.6206 14.8438 63.3333 14.8438C73.0461 14.8438 80.9479 22.7456 80.9479 32.4583ZM63.3333 21.7708C64.2077 21.7708 64.9167 22.4798 64.9167 23.3542V24.0223C66.7595 24.6761 68.0833 26.4359 68.0833 28.5C68.0833 29.3744 67.3744 30.0833 66.5 30.0833C65.6256 30.0833 64.9167 29.3744 64.9167 28.5C64.9167 27.627 64.2064 26.9167 63.3333 26.9167C62.4603 26.9167 61.75 27.627 61.75 28.5V29.1407C61.75 29.8369 62.1965 30.4441 62.8611 30.6519L64.75 31.2421C66.7438 31.8654 68.0833 33.6874 68.0833 35.776V36.4167C68.0833 38.6965 66.4685 40.6058 64.3229 41.0624V41.5625C64.3229 42.4369 63.614 43.1458 62.7396 43.1458C61.8652 43.1458 61.1563 42.4369 61.1563 41.5625V40.6363C59.6295 39.8454 58.5833 38.2514 58.5833 36.4167C58.5833 35.5423 59.2923 34.8333 60.1667 34.8333C61.0411 34.8333 61.75 35.5423 61.75 36.4167C61.75 37.2897 62.4603 38 63.3333 38C64.2064 38 64.9167 37.2897 64.9167 36.4167V35.776C64.9167 35.0797 64.4702 34.4725 63.8056 34.2647L61.9167 33.6745C59.9228 33.0513 58.5833 31.2293 58.5833 29.1407V28.5C58.5833 26.4359 59.9072 24.6761 61.75 24.0223V23.3542C61.75 22.4798 62.4589 21.7708 63.3333 21.7708ZM89.0625 63.7292V83.9167C89.0625 90.0281 84.0905 95 77.9792 95H17.0208C10.9096 95 5.9375 90.0281 5.9375 83.9167V6.33333C5.9375 2.84109 8.77859 0 12.2708 0H63.7292C67.2214 0 70.0625 2.84109 70.0625 6.33333C70.0625 7.20773 69.3536 7.91667 68.4792 7.91667C67.6048 7.91667 66.8958 7.20773 66.8958 6.33333C66.8958 4.58731 65.4752 3.16667 63.7292 3.16667H12.2708C10.5248 3.16667 9.10417 4.58731 9.10417 6.33333V83.9167C9.10417 88.2819 12.6556 91.8333 17.0208 91.8333H70.2331C68.1758 89.8201 66.8958 87.0156 66.8958 83.9167V59.1771C66.8958 58.3027 67.6048 57.5938 68.4792 57.5938C69.3536 57.5938 70.0625 58.3027 70.0625 59.1771V83.9167C70.0625 88.2819 73.6139 91.8333 77.9792 91.8333C82.3444 91.8333 85.8959 88.2819 85.8959 83.9167V63.7292C85.8959 61.9831 84.4752 60.5625 82.7292 60.5625H76C75.1256 60.5625 74.4167 59.8536 74.4167 58.9792C74.4167 58.1048 75.1256 57.3958 76 57.3958H82.7292C86.2214 57.3958 89.0625 60.2369 89.0625 63.7292ZM19.7917 42.5521C19.7917 41.6777 20.5006 40.9688 21.375 40.9688H34.8333C35.7077 40.9688 36.4167 41.6777 36.4167 42.5521C36.4167 43.4265 35.7077 44.1354 34.8333 44.1354H21.375C20.5006 44.1354 19.7917 43.4265 19.7917 42.5521ZM19.7917 24.7396C19.7917 23.8652 20.5006 23.1562 21.375 23.1562H34.8333C35.7077 23.1562 36.4167 23.8652 36.4167 24.7396C36.4167 25.614 35.7077 26.3229 34.8333 26.3229H21.375C20.5006 26.3229 19.7917 25.614 19.7917 24.7396ZM56.2083 60.3646C56.2083 61.239 55.4994 61.9479 54.625 61.9479H21.375C20.5006 61.9479 19.7917 61.239 19.7917 60.3646C19.7917 59.4902 20.5006 58.7812 21.375 58.7812H54.625C55.4994 58.7812 56.2083 59.4902 56.2083 60.3646ZM56.2083 76.9896C56.2083 77.864 55.4994 78.5729 54.625 78.5729H21.375C20.5006 78.5729 19.7917 77.864 19.7917 76.9896C19.7917 76.1152 20.5006 75.4062 21.375 75.4062H54.625C55.4994 75.4062 56.2083 76.1152 56.2083 76.9896Z" fill="#0F4C75"/>
</g>
<defs>
<clipPath id="clip0">
<rect width="95" height="95" fill="white"/>
</clipPath>
</defs>
</svg>
