<svg width="98" height="98" viewBox="0 0 98 98" fill="none" xmlns="http://www.w3.org/2000/svg">
<g clip-path="url(#clip0)">
<path d="M29.0237 32.8008L23.205 38.6196C22.5667 39.2574 21.533 39.2572 20.895 38.6196L18.1388 35.8633C17.501 35.2253 17.501 34.1914 18.1388 33.5534C18.7768 32.9158 19.8107 32.9158 20.4487 33.5534L22.05 35.1548L26.7138 30.4909C27.3518 29.8532 28.3857 29.8532 29.0237 30.4909C29.6615 31.1289 29.6615 32.1628 29.0237 32.8008ZM29.0237 51.52C28.3857 50.8824 27.3518 50.8824 26.7138 51.52L22.05 56.184L20.4487 54.5825C19.8107 53.9449 18.7768 53.9449 18.1388 54.5825C17.501 55.2205 17.501 56.2545 18.1388 56.8925L20.895 59.6487C21.5333 60.2865 22.5669 60.2863 23.205 59.6487L29.0237 53.83C29.6615 53.192 29.6615 52.1581 29.0237 51.52V51.52ZM68.2937 96.3667C68.2937 97.2687 67.5624 98 66.6604 98H13.1687C8.66565 98 5.00208 94.3364 5.00208 89.8333V16.3333C5.00208 11.8302 8.66565 8.16667 13.1687 8.16667H32.7687V7.14583C32.7687 3.20562 35.9744 0 39.9146 0C43.8548 0 47.0604 3.20562 47.0604 7.14583V8.16667H66.6604C71.1635 8.16667 74.8271 11.8302 74.8271 16.3333V33.8237C74.8271 34.7257 74.0958 35.457 73.1937 35.457C72.2917 35.457 71.5604 34.7257 71.5604 33.8237V16.3333C71.5604 13.6316 69.3621 11.4333 66.6604 11.4333C64.1404 11.4333 15.3184 11.4333 13.1687 11.4333C10.467 11.4333 8.26875 13.6316 8.26875 16.3333V89.8333C8.26875 92.5351 10.467 94.7333 13.1687 94.7333H66.6604C67.5624 94.7333 68.2937 95.4647 68.2937 96.3667ZM36.0354 8.16667H43.7937V7.14583C43.7937 5.00678 42.0536 3.26667 39.9146 3.26667C37.7755 3.26667 36.0354 5.00678 36.0354 7.14583V8.16667ZM58.6979 15.925C58.6979 15.023 57.9666 14.2917 57.0646 14.2917C56.1626 14.2917 55.4312 15.023 55.4312 15.925C55.4312 17.7262 53.9657 19.1917 52.1646 19.1917H27.6646C25.8634 19.1917 24.3979 17.7262 24.3979 15.925C24.3979 15.023 23.6666 14.2917 22.7646 14.2917C21.8626 14.2917 21.1312 15.023 21.1312 15.925C21.1312 19.5275 24.0621 22.4583 27.6646 22.4583H52.1646C55.7671 22.4583 58.6979 19.5275 58.6979 15.925ZM29.5021 74.9292V78.6042C29.5021 81.3059 27.3038 83.5042 24.6021 83.5042H20.9271C18.2253 83.5042 16.0271 81.3059 16.0271 78.6042V74.9292C16.0271 72.2274 18.2253 70.0292 20.9271 70.0292H24.6021C27.3038 70.0292 29.5021 72.2274 29.5021 74.9292ZM26.2354 74.9292C26.2354 74.0286 25.5027 73.2958 24.6021 73.2958H20.9271C20.0265 73.2958 19.2937 74.0286 19.2937 74.9292V78.6042C19.2937 79.5047 20.0265 80.2375 20.9271 80.2375H24.6021C25.5027 80.2375 26.2354 79.5047 26.2354 78.6042V74.9292ZM56.8604 75.95H51.3479C50.4459 75.95 49.7146 76.6813 49.7146 77.5833C49.7146 78.4853 50.4459 79.2167 51.3479 79.2167H56.8604C57.7624 79.2167 58.4937 78.4853 58.4937 77.5833C58.4937 76.6813 57.7624 75.95 56.8604 75.95ZM92.9979 44.7125V83.5042C92.9979 87.1067 90.0671 90.0375 86.4646 90.0375H47.6729C44.0704 90.0375 41.1396 87.1067 41.1396 83.5042V44.7125C41.1396 41.11 44.0704 38.1792 47.6729 38.1792H86.4646C90.0671 38.1792 92.9979 41.11 92.9979 44.7125ZM89.7312 44.7125C89.7312 42.9113 88.2657 41.4458 86.4646 41.4458H61.3521V51.3375C61.3521 52.2381 62.0848 52.9708 62.9854 52.9708H71.3562C72.2568 52.9708 72.9896 52.2381 72.9896 51.3375V46.1417C72.9896 45.2397 73.7209 44.5083 74.6229 44.5083C75.5249 44.5083 76.2562 45.2397 76.2562 46.1417V51.3375C76.2562 54.0392 74.058 56.2375 71.3562 56.2375H62.9854C60.2837 56.2375 58.0854 54.0392 58.0854 51.3375V41.4458H47.6729C45.8718 41.4458 44.4062 42.9113 44.4062 44.7125V83.5042C44.4062 85.3053 45.8718 86.7708 47.6729 86.7708H86.4646C88.2657 86.7708 89.7312 85.3053 89.7312 83.5042V44.7125Z" fill="#0F4C75"/>
</g>
<defs>
<clipPath id="clip0">
<rect width="98" height="98" fill="white"/>
</clipPath>
</defs>
</svg>
