<svg width="95" height="95" viewBox="0 0 95 95" fill="none" xmlns="http://www.w3.org/2000/svg">
<g clip-path="url(#clip0)">
<path d="M74.2187 45.4219C62.76 45.4219 53.4375 54.7444 53.4375 66.2031C53.4375 77.6619 62.76 86.9844 74.2187 86.9844C85.6775 86.9844 95 77.6619 95 66.2031C95 54.7444 85.6775 45.4219 74.2187 45.4219ZM74.2187 83.8177C64.506 83.8177 56.6042 75.9159 56.6042 66.2031C56.6042 56.4904 64.506 48.5886 74.2187 48.5886C83.9315 48.5886 91.8333 56.4904 91.8333 66.2031C91.8333 75.9159 83.9315 83.8177 74.2187 83.8177ZM72.6354 62.2448V62.8855C72.6354 63.5817 73.0819 64.1889 73.7465 64.3967L75.6354 64.9869C77.6292 65.6102 78.9687 67.4322 78.9687 69.5208V70.1615C78.9687 72.4413 77.3539 74.3504 75.2083 74.8072V75.3073C75.2083 76.1817 74.4994 76.8906 73.625 76.8906C72.7506 76.8906 72.0417 76.1817 72.0417 75.3073V74.3811C70.5149 73.59 69.4687 71.996 69.4687 70.1615C69.4687 69.2871 70.1777 68.5781 71.0521 68.5781C71.9265 68.5781 72.6354 69.2871 72.6354 70.1615C72.6354 71.0345 73.3457 71.7448 74.2187 71.7448C75.0918 71.7448 75.8021 71.0345 75.8021 70.1615V69.5208C75.8021 68.8245 75.3556 68.2173 74.691 68.0095L72.8021 67.4193C70.8082 66.7961 69.4687 64.9741 69.4687 62.8855V62.2448C69.4687 60.1807 70.7926 58.4209 72.6354 57.7671V57.099C72.6354 56.2246 73.3443 55.5156 74.2187 55.5156C75.0931 55.5156 75.8021 56.2246 75.8021 57.099V57.7671C77.6449 58.4209 78.9687 60.1807 78.9687 62.2448C78.9687 63.1192 78.2598 63.8281 77.3854 63.8281C76.511 63.8281 75.8021 63.1192 75.8021 62.2448C75.8021 61.3718 75.0918 60.6615 74.2187 60.6615C73.3457 60.6615 72.6354 61.3718 72.6354 62.2448ZM48.0937 65.6903C48.0937 66.5647 47.3848 67.2737 46.5104 67.2737H6.33333C2.84109 67.2737 0 64.4326 0 60.9403V14.349C0 10.8567 2.84109 8.01562 6.33333 8.01562H82.9271C86.4193 8.01562 89.2604 10.8567 89.2604 14.349V41.9914C89.2604 42.8658 88.5515 43.5747 87.6771 43.5747C86.8027 43.5747 86.0937 42.8658 86.0937 41.9914V14.349C86.0937 12.6029 84.6731 11.1823 82.9271 11.1823H6.33333C4.58731 11.1823 3.16667 12.6029 3.16667 14.349V60.9403C3.16667 62.6864 4.58731 64.107 6.33333 64.107H46.5104C47.3848 64.107 48.0937 64.8159 48.0937 65.6903ZM29.7849 37.6445C29.7849 45.8302 36.4444 52.4899 44.6302 52.4899C52.816 52.4899 59.4755 45.8304 59.4755 37.6445C59.4755 29.4587 52.816 22.7994 44.6302 22.7994C36.4444 22.7994 29.7849 29.4589 29.7849 37.6445ZM56.3089 37.6445C56.3089 44.0842 51.0698 49.3232 44.6302 49.3232C38.1906 49.3232 32.9515 44.0842 32.9515 37.6445C32.9515 31.2051 38.1906 25.9661 44.6302 25.9661C51.0698 25.9661 56.3089 31.2051 56.3089 37.6445ZM20.7153 36.0612C21.5897 36.0612 22.2987 36.7701 22.2987 37.6445C22.2987 38.5189 21.5897 39.2279 20.7153 39.2279H14.3879C13.5135 39.2279 12.8046 38.5189 12.8046 37.6445C12.8046 36.7701 13.5135 36.0612 14.3879 36.0612H20.7153ZM74.8725 36.0612C75.7469 36.0612 76.4558 36.7701 76.4558 37.6445C76.4558 38.5189 75.7469 39.2279 74.8725 39.2279H68.5451C67.6707 39.2279 66.9617 38.5189 66.9617 37.6445C66.9617 36.7701 67.6707 36.0612 68.5451 36.0612H74.8725Z" fill="#0F4C75"/>
</g>
<defs>
<clipPath id="clip0">
<rect width="95" height="95" fill="white"/>
</clipPath>
</defs>
</svg>
