<svg width="98" height="98" viewBox="0 0 98 98" fill="none" xmlns="http://www.w3.org/2000/svg">
<g clip-path="url(#clip0)">
<path d="M48.6042 65.7426C48.6042 77.5629 58.2208 87.1795 70.0412 87.1795C81.8615 87.1795 91.4781 77.5629 91.4781 65.7426C91.4781 58.0365 87.3904 51.2683 81.27 47.4893V20.6229C81.27 20.0901 81.0136 19.6183 80.6188 19.32C60.3257 -0.973021 61.6387 0.17212 60.9444 0.0345155C60.7016 -0.0136666 63.2649 0.00266632 13.0551 0.00266632C9.45267 0.00266632 6.52193 2.9334 6.52193 6.53582V91.4669C6.52193 95.0693 9.45267 98 13.0551 98H74.7118C78.3142 98 81.2449 95.0693 81.2449 91.4669C81.2449 90.5649 80.5136 89.8336 79.6116 89.8336C78.7096 89.8336 77.9783 90.5649 77.9783 91.4669C77.9783 93.268 76.5129 94.7334 74.7118 94.7334H13.0551C11.254 94.7334 9.78851 93.268 9.78851 91.4669V6.53582C9.78851 4.73471 11.254 3.26924 13.0551 3.26924H58.9914V15.7231C58.9914 19.3255 61.9221 22.2562 65.5245 22.2562H78.0034V45.8399C75.3406 44.7709 72.4472 44.2307 69.4287 44.315V32.6687C69.4287 29.967 67.2305 27.7688 64.5288 27.7688H23.2883C20.5864 27.7688 18.3884 29.967 18.3884 32.6687V53.4931C18.3884 56.1948 20.5864 58.393 23.2883 58.393H44.7252C45.6272 58.393 46.3585 57.6617 46.3585 56.7597C46.3585 55.8577 45.6272 55.1264 44.7252 55.1264H37.3754V44.7142H52.075C52.977 44.7142 53.7083 43.9829 53.7083 43.0809V31.0354H64.5288C65.4294 31.0354 66.1621 31.7681 66.1621 32.6687V44.6584C56.1872 46.4889 48.6042 55.2464 48.6042 65.7426ZM65.5245 18.9897C63.7234 18.9897 62.2579 17.5242 62.2579 15.7231V5.57912L75.6687 18.9899H65.5245V18.9897ZM23.2883 31.0352H34.1088V41.4474H21.655V32.6684C21.655 31.7679 22.3877 31.0352 23.2883 31.0352ZM34.1088 55.1262H23.2883C22.3877 55.1262 21.655 54.3934 21.655 53.4929V44.714H34.1088V55.1262ZM50.4417 41.4474H37.3754V31.0352H50.4417V41.4474ZM88.2115 65.7426C88.2115 75.7618 80.0604 83.9129 70.0412 83.9129C60.022 83.9129 51.8708 75.7618 51.8708 65.7426C51.8708 55.7233 60.022 47.5722 70.0412 47.5722C80.0604 47.5722 88.2115 55.7233 88.2115 65.7426ZM71.6745 69.8258V69.1649C71.6745 68.4467 71.2139 67.8203 70.5283 67.6059L68.5798 66.9971C66.5231 66.3544 65.1413 64.4749 65.1413 62.3204V61.6595C65.1413 59.5303 66.5069 57.7149 68.4079 57.0406V56.3513C68.4079 55.4494 69.1392 54.7181 70.0412 54.7181C70.9432 54.7181 71.6745 55.4494 71.6745 56.3513V57.0406C73.5754 57.7149 74.941 59.5303 74.941 61.6595C74.941 62.5615 74.2097 63.2928 73.3077 63.2928C72.4058 63.2928 71.6745 62.5615 71.6745 61.6595C71.6745 60.759 70.9417 60.0262 70.0412 60.0262C69.1406 60.0262 68.4079 60.759 68.4079 61.6595V62.3204C68.4079 63.0386 68.8685 63.665 69.554 63.8794L71.5026 64.4882C73.5593 65.1309 74.941 67.0104 74.941 69.1649V69.8258C74.941 72.1775 73.2753 74.1468 71.062 74.6178V75.134C71.062 76.0359 70.3307 76.7673 69.4287 76.7673C68.5267 76.7673 67.7954 76.0359 67.7954 75.134V74.1785C66.2207 73.3627 65.1413 71.7184 65.1413 69.8258C65.1413 68.9238 65.8726 68.1925 66.7746 68.1925C67.6766 68.1925 68.4079 68.9238 68.4079 69.8258C68.4079 70.7263 69.1406 71.4591 70.0412 71.4591C70.9417 71.4591 71.6745 70.7263 71.6745 69.8258ZM18.3884 67.3758C18.3884 66.4739 19.1197 65.7426 20.0217 65.7426H35.9463C36.8482 65.7426 37.5795 66.4739 37.5795 67.3758C37.5795 68.2778 36.8482 69.0091 35.9463 69.0091H20.0217C19.1197 69.0091 18.3884 68.2778 18.3884 67.3758ZM18.3884 79.6255C18.3884 78.7235 19.1197 77.9922 20.0217 77.9922H40.0295C40.9315 77.9922 41.6628 78.7235 41.6628 79.6255C41.6628 80.5275 40.9315 81.2588 40.0295 81.2588H20.0217C19.1197 81.2588 18.3884 80.5275 18.3884 79.6255Z" fill="#0F4C75"/>
</g>
<defs>
<clipPath id="clip0">
<rect width="98" height="98" fill="white"/>
</clipPath>
</defs>
</svg>
